<?xml version="1.0" encoding="utf-8"?>
<!-- Generator: Adobe Illustrator 22.1.0, SVG Export Plug-In . SVG Version: 6.00 Build 0)  -->
<svg version="1.1" id="Layer_1" xmlns="http://www.w3.org/2000/svg" xmlns:xlink="http://www.w3.org/1999/xlink" x="0px" y="0px"
	 viewBox="0 0 418.8 418.8" style="enable-background:new 0 0 418.8 418.8;" xml:space="preserve">
<style type="text/css">
	.st0{fill:#2F3C45;}
	.st1{fill:#FFFFFF;}
</style>
<circle class="st0" cx="209.4" cy="209.4" r="209.4"/>
<path class="st1" d="M396,186.3c-0.3-9.5-10.5-19.4-25.3-23.1c-2.8-0.6-5.9-1.2-8.6-1.5c-15.1-1.8-38.5,7.4-34.8,20
	c4,13.2-6.5,27.7-25.9,41.3c0.6-3.4,0.9-6.8,0.9-10.2c0-17.9-5.2-34.8-13.9-49c-2.5-1.8-5.5-3.4-8.9-5.2c9.2-0.6,16.3-5.5,16.6-12.3
	c0.3-7.7-8.3-14.8-19.7-15.7c-6.5-0.6-12.3,1.2-16.3,4c-14.8-9.9-32.3-15.4-51.4-15.4c-18.8,0-36,5.5-50.8,15.1
	c-4-2.8-9.5-4.3-16-3.7c-11.4,0.9-20,8-19.7,15.7c0.3,6.2,6.5,11.1,15.1,12h0.3c-3.1,1.5-5.9,3.1-8,4.6
	c-6.2,9.9-10.5,20.9-12.9,32.6c-3.4,0.9-6.5,2.2-8.6,3.1c-45.6,20.6-70.2,45.3-65,64.7c8.3,30.5,90.8,43.4,189.4,21.6
	C328.6,263.6,400,216.8,396,186.3z M83.4,250.3c-3.1-10.2,8.3-24.3,25.3-37.6c1.8-1.5,4.3-2.8,6.5-4.3c0,1.5,0,2.8,0,4.3
	c0,8,1.8,16.3,4.9,24c0.3,0.9,0.9,1.8,1.2,2.8c0,0.3,0,0.6,0.3,0.6c0,0.3,0.3,0.6,0.6,0.9c0.3,0.9,0.9,1.8,1.2,2.8
	c0.3,0.3,0.3,0.6,0.6,0.9c1.2,2.5,2.8,4.9,4.3,7.7c1.2,2.2,31.7,11.1,53,13.2C130.9,273.4,89,268.2,83.4,250.3z M274.1,233.7
	c-21.2,26.5-48.3-8.9-64.4-9.5c-16,0.6-43.1,35.7-64.4,9.5c-21.9-27.1-11.7-53.6,64.4-53.6S295.9,206.6,274.1,233.7z"/>
</svg>
