<?xml version="1.0" encoding="utf-8"?>
<!-- Generator: Adobe Illustrator 22.1.0, SVG Export Plug-In . SVG Version: 6.00 Build 0)  -->
<svg version="1.1" id="Layer_1" xmlns="http://www.w3.org/2000/svg" xmlns:xlink="http://www.w3.org/1999/xlink" x="0px" y="0px"
	 viewBox="0 0 2032.5 520.4" style="enable-background:new 0 0 2032.5 520.4;" xml:space="preserve">
<style type="text/css">
	.st0{fill:#2E3B45;}
	.st1{fill:#FFFFFF;}
	.st2{fill:none;stroke:#EEDF6F;stroke-miterlimit:10;}
</style>
<circle class="st0" cx="1265" cy="58.3" r="36.3"/>
<path class="st0" d="M1877.9,444.5c76.5-0.6,138.7-62.5,138.7-139c-0.4-11.4-9.5-20.6-21.1-20.6H1912c-7.6,0-13.4,5.8-13.4,13.4
	v24.7c0,7.6,5.8,13.4,13.4,13.4h33.9c2.8,0,4.9,2.2,4.9,4.9c0,0.3,0,1.5-0.9,2.8c-14.9,26.5-43.3,43-73.8,43
	c-51.8-0.9-93.9-43.6-93.9-95.4c0-52.8,42.7-95.4,95.4-95.4c26.5,0,52.2,11.3,69.8,30.5c1.8,1.8,4.3,2.8,6.7,2.8
	c2.2,0,3.7-0.9,4.9-2.2c2.5-2.8,5.1-5.8,8.2-9.1c7-7.6,14.7-16.1,19.5-22c2.2-2.5,3.7-9.1-4.3-16.4c-29.6-27.1-66.7-41.8-104.8-41.8
	c-41.2,0-79.6,15.8-108.5,44.8l0,0c0,0,0,0,0,0.3c-28,28-43.9,65.5-44.6,105.4v2.8C1724.6,375.6,1793.5,444.5,1877.9,444.5
	L1877.9,444.5z"/>
<circle class="st0" cx="225.4" cy="281" r="209.4"/>
<path class="st1" d="M412,257.9c-0.3-9.5-10.5-19.4-25.3-23.1c-2.8-0.6-5.9-1.2-8.6-1.5c-15.1-1.8-38.5,7.4-34.8,20
	c4,13.2-6.5,27.7-25.9,41.3c0.6-3.4,0.9-6.8,0.9-10.2c0-17.9-5.2-34.8-13.9-49c-2.5-1.8-5.5-3.4-8.9-5.2c9.2-0.6,16.3-5.5,16.6-12.3
	c0.3-7.7-8.3-14.8-19.7-15.7c-6.5-0.6-12.3,1.2-16.3,4c-14.8-9.9-32.3-15.4-51.4-15.4c-18.8,0-36,5.5-50.8,15.1
	c-4-2.8-9.5-4.3-16-3.7c-11.4,0.9-20,8-19.7,15.7c0.3,6.2,6.5,11.1,15.1,12h0.3c-3.1,1.5-5.9,3.1-8,4.6
	c-6.2,9.9-10.5,20.9-12.9,32.6c-3.4,0.9-6.5,2.2-8.6,3.1c-45.6,20.6-70.2,45.3-65,64.7c8.3,30.5,90.8,43.4,189.4,21.6
	C344.6,335.2,416,288.4,412,257.9z M99.4,321.9c-3.1-10.2,8.3-24.3,25.3-37.6c1.8-1.5,4.3-2.8,6.5-4.3c0,1.5,0,2.8,0,4.3
	c0,8,1.8,16.3,4.9,24c0.3,0.9,0.9,1.8,1.2,2.8c0,0.3,0,0.6,0.3,0.6c0,0.3,0.3,0.6,0.6,0.9c0.3,0.9,0.9,1.8,1.2,2.8
	c0.3,0.3,0.3,0.6,0.6,0.9c1.2,2.5,2.8,4.9,4.3,7.7c1.2,2.2,31.7,11.1,53,13.2C146.9,345,105,339.8,99.4,321.9z M290.1,305.3
	c-21.2,26.5-48.3-8.9-64.4-9.5c-16,0.6-43.1,35.7-64.4,9.5c-21.9-27.1-11.7-53.6,64.4-53.6S311.9,278.2,290.1,305.3z"/>
<path class="st2" d="M811.9,775.6"/>
<circle class="st0" cx="2142" cy="435.7" r="8.8"/>
<g>
	<path class="st0" d="M2103.2,158.3v24.8c0,2.3,1.8,4.1,4.1,4.1h7.4c2.3,0,4.1-1.8,4.1-4.1V173c0-0.8,0.8-1.4,1.4-1.4
		c0.2,0,0.5,0,0.8,0.3c7.8,4.4,12.8,12.9,12.8,21.9c-0.3,15.3-12.9,27.8-28.4,27.8c-15.6,0-28.4-12.6-28.4-28.4
		c0-7.8,3.3-15.5,9-20.7c0.6-0.6,0.8-1.2,0.8-2c0-0.8-0.3-1.1-0.8-1.4c-0.8-0.8-1.8-1.5-2.6-2.4c-2.3-2.1-4.7-4.4-6.6-5.7
		c-0.8-0.8-2.6-1.1-4.8,1.2c-8.1,8.9-12.3,19.8-12.3,31.1c0,12.2,4.7,23.6,13.4,32.2l0,0c0,0,0,0,0.2,0c8.4,8.4,19.4,13.1,31.4,13.2
		h0.8c25.1,0,45.5-20.4,45.5-45.5h0.2c-0.2-22.7-18.8-41.3-41.5-41.3C2105.9,152.1,2103.2,154.8,2103.2,158.3z"/>
	<path class="st0" d="M2105,349.6c15.6,0,28.4,12.6,28.4,28.6c0,15.6-12.6,28.6-28.4,28.6c-15.6,0-28.4-12.6-28.4-28.6
		C2076.7,362.2,2089.3,349.6,2105,349.6z M2059.6,378c0,25.1,20.3,45.5,45.5,45.5c25.1,0,45.5-20.3,45.5-45.5
		c0-25.1-20.3-45.5-45.5-45.5C2080,332.4,2059.6,352.7,2059.6,378z"/>
	<g>
		<g>
			<path class="st0" d="M2145.1,248.6c-2.4,1.5-18.3,11.4-26.3,16.5c-5.4-9-15.2-14.9-26.3-14.9c-17,0-30.7,13.8-30.7,30.7v24.9
				c0,0.2,0,0.2,0,0.2v9.9c0,1.8,1.4,3.3,3.3,3.3h80.2c0.8,0,1.1-0.2,1.2-0.3s0.2-0.2,0.2-0.2c1.1-0.8,1.8-1.8,1.8-2.9v-9.8
				c0-1.8-1.4-3.3-3.3-3.3h-22.1v-21.9c0-0.6,0-1.1-0.2-1.5c5.3-3.5,18.6-12,22.5-14.4c2.6-1.5,2.9-2.3,2.9-4.1
				c0-1.5,0.2-9,0.2-10.4C2148.5,248.3,2146.9,247.5,2145.1,248.6z M2107.1,302.8h-29.5v-21.9c0-8.1,6.6-14.7,14.7-14.7
				s14.7,6.6,14.7,14.7V302.8L2107.1,302.8z"/>
		</g>
	</g>
</g>
<path class="st0" d="M848,293.2V291c0-84.4-68.6-153.1-153.1-153.1c-84.1,0.3-152.8,68.9-152.8,153.1c0,84.4,68.6,153.1,153.1,153.1
	c32,0,62.8-10.1,88.7-28.6c0.9-0.6,2.2-0.6,3.1-0.3c0.9,0.3,1.5,1.5,1.8,2.5l0.8,8.3c1.2,7.9,6.1,12.8,13.4,12.8h34.4
	c6,0,10.9-4.9,10.9-10.9l0-0.6V294.3C848,294,848,293.4,848,293.2z M695.3,386.4c-52.5,0-95.1-42.7-95.1-95.1
	c0-52.8,42.7-95.4,95.1-95.4c52.5,0,95.1,42.7,95.1,95.1C790.4,343.7,747.8,386.4,695.3,386.4z"/>
<path class="st0" d="M1248.2,143.6h33.4h0c6.1,0,11,4.9,11,11l0,0.1v272.9l0,0c0,6.1-4.9,11-11,11h-33.4c-6.1,0-11-4.9-11-11h0v-273
	h0C1237.2,148.5,1242.1,143.6,1248.2,143.6z"/>
<path class="st0" d="M1664.4,439.5L1441.6,265c0,0,0,0,0,0l-1.9-1.5l0,0c-0.7-0.5-1.6-0.9-2.5-0.9c-2.3,0-4.1,1.9-4.1,4.1v2.5
	l0,158.4l0,0c0,6.1-4.9,11-11,11h-33.4c-6.1,0-11-4.9-11-11h0l0-281.5h0c0-2.3,1.9-4.1,4.1-4.1c1,0,1.9,0.3,2.6,0.9l220.3,172.6l0,0
	l4.2,3.3l0,0c0.7,0.5,1.6,0.9,2.5,0.9c2.3,0,4.1-1.9,4.1-4.1l0-160.9c0-6.2,4.9-11.1,11.1-11.1h32.9c6.2,0,11.4,4.9,11.7,10.8
	l0,281.8c0,2.3-1.9,4.1-4.1,4.1C1666,440.4,1665.1,440,1664.4,439.5z"/>
<path class="st0" d="M1169,150.2l-153.6,225.4c0,0,0,0,0,0l-1.3,1.9l0,0c-0.5,0.7-0.9,1.6-0.9,2.5c0,2.3,1.9,4.1,4.1,4.1h2.4
	l141.4,0l0,0c6.1,0,11,4.9,11,11v32.5c0,6.1-4.9,11-11,11v0l-260.5,0v0c-2.3,0-4.1-1.9-4.1-4.1c0-0.9,0.3-1.7,0.8-2.4l151.7-223l0,0
	l2.9-4.2l0,0c0.5-0.7,0.9-1.6,0.9-2.5c0-2.3-1.9-4.1-4.1-4.1l-131.5,0c-6.2,0-11.1-4.9-11.1-11.1v-31.9c0-6.2,4.9-11.4,10.8-11.7
	l248.8,0c2.3,0,4.1,1.9,4.1,4.1C1169.8,148.7,1169.5,149.5,1169,150.2z"/>
</svg>
